inDegrees=no
num_controls=7
num_derivatives=13
num_iterations=128
num_multipliers=7
num_parameters=0
num_slacks=7
num_states=26
objective=3.915633
objective_accelerations=0.483394
objective_balance=0.033025
objective_effort=0.453722
objective_height=2.891435
objective_ligament=0.054058
solver_duration=1441.513545
status=Solve_Succeeded
success=true
DataType=double
version=3
OpenSimVersion=4.4-2022-07-23-0e9fedc
endheader
time	/jointset/ground_pelvis/pelvis_tilt/value	/jointset/ground_pelvis/pelvis_tx/value	/jointset/ground_pelvis/pelvis_ty/value	/jointset/hip_l/hip_flexion_l/value	/jointset/hip_l/hip_adduction_l/value	/jointset/hip_l/hip_rotation_l/value	/jointset/back/lumbar_extension/value	/jointset/patellofemoral_l/patellar_flexion_l/value	/jointset/knee_l/knee_flexion_l/value	/jointset/knee_l/knee_adduction_l/value	/jointset/knee_l/knee_rotation_l/value	/jointset/ankle_l/ankle_angle_l/value	/jointset/subtalar_l/subtalar_angle_l/value	/jointset/ground_pelvis/pelvis_tilt/speed	/jointset/ground_pelvis/pelvis_tx/speed	/jointset/ground_pelvis/pelvis_ty/speed	/jointset/hip_l/hip_flexion_l/speed	/jointset/hip_l/hip_adduction_l/speed	/jointset/hip_l/hip_rotation_l/speed	/jointset/back/lumbar_extension/speed	/jointset/patellofemoral_l/patellar_flexion_l/speed	/jointset/knee_l/knee_flexion_l/speed	/jointset/knee_l/knee_adduction_l/speed	/jointset/knee_l/knee_rotation_l/speed	/jointset/ankle_l/ankle_angle_l/speed	/jointset/subtalar_l/subtalar_angle_l/speed	/forceset/tau_hip_flexion_l	/forceset/tau_hip_adduction_l	/forceset/tau_hip_rotation_l	/forceset/tau_knee_flexion_l	/forceset/tau_ankle_angle_l	/forceset/tau_subtalar_angle_l	/forceset/tau_lumbar_extension	lambda_cid13_p0	lambda_cid13_p1	lambda_cid13_p2	lambda_cid13_p3	lambda_cid13_p4	lambda_cid13_p5	lambda_cid14_p0	/jointset/ground_pelvis/pelvis_tilt/accel	/jointset/ground_pelvis/pelvis_tx/accel	/jointset/ground_pelvis/pelvis_ty/accel	/jointset/hip_l/hip_flexion_l/accel	/jointset/hip_l/hip_adduction_l/accel	/jointset/hip_l/hip_rotation_l/accel	/jointset/back/lumbar_extension/accel	/jointset/patellofemoral_l/patellar_flexion_l/accel	/jointset/knee_l/knee_flexion_l/accel	/jointset/knee_l/knee_adduction_l/accel	/jointset/knee_l/knee_rotation_l/accel	/jointset/ankle_l/ankle_angle_l/accel	/jointset/subtalar_l/subtalar_angle_l/accel	gamma_cid13_p0	gamma_cid13_p1	gamma_cid13_p2	gamma_cid13_p3	gamma_cid13_p4	gamma_cid13_p5	gamma_cid14_p0
0	-0.1600276331612678	0.0585227561351526	0.8979940965634448	0.3774920279260975	-0.2592050712561165	-0.2718122882717834	-0.0126506700172305	0.03223623128439648	0.03223623128433527	-0.1745327437974023	0.1734222273238979	-0.04231376238535053	-0.009342937795790604	0	0	0	0	0	0	0	0	0	0	0	0	0	0.1377536999269482	-0.07078221493369424	-0.04726722559679243	-0.2781064994433686	0.2733958244528835	-0.042935690190682	-0.08755949059944482	46.29785636453089	4.033711233002021	6.386873159296353	1.275309299168339	-578.8907638479302	-67.09701102878272	-39.03983898692675	-3.644594841939137	-2.308804623455057	-1.241934117342232	14.13604941314167	-1.603482641434729	4.337808082020215	-6.407100865259876	12.78173978611747	12.78173978611876	0.4228318721433131	0.1220517168242854	2.557906579693249	-1.052032521937497	-5.820311208896215e-08	2.228980800337265e-07	1.283610087363983e-07	9.023575460325077e-09	1.178521675685824e-07	-1.613139348558542e-08	-1.233597100000024e-08
0.01	-0.1602024323027522	0.05840889641779424	0.8979334530854607	0.3781809172976747	-0.2592847386179734	-0.2715958180230829	-0.01297251160654274	0.03286132197113444	0.03286132197107514	-0.1745140326374652	0.1734241208514586	-0.04218971362761223	-0.00939591186064318	-0.03477852099374065	-0.02265313477346596	-0.01208822656176483	0.1371178589899612	-0.01584453212695307	0.04308095262646898	-0.06394169879218677	0.1244524133790009	0.1244524133789957	0.003722918841511021	0.0003917609604375159	0.02471729801679172	-0.01052880062436822	0.1324472139714122	-0.07885049365147452	-0.04630922398976592	-0.2728319108598359	0.2650528801529891	-0.03119525061267504	-0.08304027363439057	44.02847627196176	-0.4269140438832943	6.822855253984978	1.815958920776925	-580.2911114308897	-75.66680025834667	-39.05771353247707	-3.367299865590062	-2.225744798465481	-1.186173000156422	13.40063856312105	-1.561650191036371	4.261263639822301	-6.323711523275697	12.19213598689682	12.19213598689528	0.3441784692001733	-0.0003098234054963872	2.414769769099713	-1.043451193642549	-1.031610984338219e-07	2.488031851880702e-07	1.917505788514057e-07	5.036708753736269e-08	-8.80866715308984e-08	-5.397127567970314e-09	-2.416616630640651e-08
0.02	-0.1607195804817442	0.05807206997386265	0.897753146126944	0.380221182143377	-0.2595201936396395	-0.2709549332907473	-0.01392097161120128	0.03471396556626028	0.03471396556625516	-0.1744586609723859	0.1734303223668524	-0.04182126621842094	-0.009552203403931075	-0.06846980748712229	-0.04459334531464314	-0.02393269610653755	0.2702750948278242	-0.03115753196235773	0.08488289672741434	-0.1253236830672876	0.2455105816822184	0.245510581682204	0.007332100844799346	0.0008615975585199284	0.04887973029066224	-0.02066349568700239	0.1271407280161516	-0.08691877236923051	-0.04535122238259661	-0.2675573222763093	0.2567099358530938	-0.01945481103464662	-0.07852105666906739	41.86787863593981	-4.904293582666292	7.258895248360585	2.136909031381283	-580.0611216038964	-84.08308678362711	-39.11044040393109	-3.427147941865923	-2.166219776998595	-1.193182713943906	13.34392478272214	-1.497176183125878	4.082006376915356	-5.895157961841862	12.1028907709611	12.10289077096158	0.4000845044972127	0.1376668443535039	2.446933431107292	-0.9732114095919038	-1.481190847786816e-07	2.747082903424139e-07	2.551401489664131e-07	9.171059961440032e-08	-2.940255106303792e-07	5.337138349644789e-09	-3.599636161281277e-08
0.03	-0.1615683683077944	0.05751969225750507	0.8974552641893081	0.383573548017606	-0.2599057483637073	-0.2699022114286709	-0.01546953227642622	0.03776074499859808	0.03776074499852624	-0.1743675112273001	0.1734415450748053	-0.04121335883879369	-0.009807429260216558	-0.1010773457559164	-0.06573224168315257	-0.035629437353581	0.3994959231552859	-0.04583906010643238	0.1254831716266058	-0.1839167680158806	0.3632961421709007	0.3632961421708915	0.01087941767950838	0.001365796661366942	0.07265870602227849	-0.03028525950740629	0.1210126628627016	-0.08147130389422778	-0.04452261802568935	-0.2627399715040908	0.2523677687806205	-0.02134774008635074	-0.07331696895082569	40.44630908765384	-3.929872706303876	7.213866767358647	2.095108041170799	-579.9541435754792	-81.11758587256712	-39.1960149411671	-3.146009417514047	-2.065212620267587	-1.155841357310894	12.60581742282361	-1.436543607314247	4.022260870570119	-5.77063146476108	11.53402154446602	11.53402154446637	0.3293611119953176	0.004197049984314562	2.336913630833645	-0.9422672007336644	-1.837183310219184e-07	3.068638156148163e-07	3.006476127789563e-07	1.259990706435758e-07	-4.488548404044467e-07	1.078688791724539e-08	-4.294890552296361e-08
